# Blender 4.1.0
# www.blender.org
mtllib resupplybox.mtl
o Cube.005
v 0.282371 1.020000 -0.310000
v 0.282371 1.060000 -0.310000
v 0.282371 1.020000 -0.350000
v 0.282371 1.060000 -0.350000
v 0.582371 1.020000 -0.310000
v 0.582371 1.060000 -0.310000
v 0.582371 1.020000 -0.350000
v 0.582371 1.060000 -0.350000
v 0.582371 1.020000 0.350000
v 0.582371 1.060000 0.350000
v 0.582371 1.020000 -0.350000
v 0.582371 1.060000 -0.350000
v 0.622371 1.020000 0.350000
v 0.622371 1.060000 0.350000
v 0.622371 1.020000 -0.350000
v 0.622371 1.060000 -0.350000
v 0.282371 1.020000 0.350000
v 0.282371 1.060000 0.350000
v 0.282371 1.020000 0.310000
v 0.282371 1.060000 0.310000
v 0.582371 1.020000 0.350000
v 0.582371 1.060000 0.350000
v 0.582371 1.020000 0.310000
v 0.582371 1.060000 0.310000
v 0.902371 1.060000 -2.000000
v 0.192371 1.020000 0.410000
v 0.902371 1.000000 -2.000000
v 0.902371 1.060000 2.000000
v 0.192371 1.020000 -0.410000
v 0.902371 1.000000 2.000000
v -1.097629 1.060000 -2.000000
v 0.672371 1.020000 0.410000
v -1.097629 1.000000 -2.000000
v -1.097629 1.060000 2.000000
v 0.672371 1.020000 -0.410000
v -1.097629 1.000000 2.000000
v 0.192371 1.060000 0.410000
v 0.192371 1.060000 -0.410000
v 0.672371 1.060000 0.410000
v 0.672371 1.060000 -0.410000
vn -1.0000 -0.0000 -0.0000
vn -0.0000 -0.0000 -1.0000
vn 1.0000 -0.0000 -0.0000
vn -0.0000 -0.0000 1.0000
vn -0.0000 -1.0000 -0.0000
vn -0.0000 1.0000 -0.0000
vt 0.682210 0.062390
vt 0.660046 0.084555
vt 0.660046 0.062390
vt 0.682210 0.106720
vt 0.660046 0.106720
vt 0.660046 0.128884
vt 0.682210 0.128884
vt 0.660046 0.151049
vt 0.637881 0.128884
vt 0.637881 0.106720
vt 0.704375 0.106720
vt 0.682210 0.084555
vt 0.682210 0.151049
vt 0.496001 0.448199
vt 0.519238 0.326457
vt 0.519238 0.367880
vt 0.698063 0.448199
vt 0.567733 0.367880
vt 0.567733 0.326457
vt 0.963822 0.242840
vt 0.761760 0.444902
vt 0.761760 0.242840
vt 0.959395 0.251473
vt 0.757333 0.453535
vt 0.757333 0.251473
vt 0.955617 0.235801
vt 0.753555 0.437863
vt 0.753555 0.235801
vt 0.960344 0.241446
vt 0.758282 0.443508
vt 0.758282 0.241446
vt 0.961207 0.239226
vt 0.759145 0.441288
vt 0.759145 0.239226
vt 0.746024 0.243050
vt 0.822173 0.323342
vt 0.822173 0.243050
vt 0.829306 0.243911
vt 0.905455 0.324203
vt 0.905455 0.243911
vt 0.910651 0.323443
vt 0.986800 0.243152
vt 0.910651 0.243152
vt 0.886854 0.409465
vt 0.959456 0.338788
vt 0.886854 0.338788
vt 0.779624 0.411760
vt 0.856713 0.334670
vt 0.779624 0.334670
vt 0.704375 0.128884
vt 0.496001 0.246137
vt 0.698063 0.246137
vt 0.963822 0.444902
vt 0.959395 0.453535
vt 0.955617 0.437863
vt 0.960344 0.443508
vt 0.961207 0.441288
vt 0.746024 0.323342
vt 0.829306 0.324203
vt 0.986800 0.323443
vt 0.959456 0.409465
vt 0.856713 0.411760
s 0
usemtl Material.002
f 2/1/1 3/2/1 1/3/1
f 3/2/2 8/4/2 7/5/2
f 8/4/3 5/6/3 7/5/3
f 6/7/4 1/8/4 5/6/4
f 7/5/5 1/9/5 3/10/5
f 4/11/6 6/7/6 8/4/6
f 10/1/1 11/2/1 9/3/1
f 12/12/2 15/5/2 11/2/2
f 16/4/3 13/6/3 15/5/3
f 13/6/4 10/13/4 9/8/4
f 15/5/5 9/9/5 11/10/5
f 12/11/6 14/7/6 16/4/6
f 18/1/1 19/2/1 17/3/1
f 19/2/2 24/4/2 23/5/2
f 24/4/3 21/6/3 23/5/3
f 22/7/4 17/8/4 21/6/4
f 23/5/5 17/9/5 19/10/5
f 20/11/6 22/7/6 24/4/6
f 28/14/6 40/15/6 39/16/6
f 34/17/6 37/18/6 38/19/6
f 28/20/4 36/21/4 30/22/4
f 34/23/1 33/24/1 36/25/1
f 27/26/5 36/27/5 33/28/5
f 25/29/3 30/30/3 27/31/3
f 31/32/2 27/33/2 33/34/2
f 2/1/1 4/12/1 3/2/1
f 3/2/2 4/12/2 8/4/2
f 8/4/3 6/7/3 5/6/3
f 6/7/4 2/13/4 1/8/4
f 7/5/5 5/6/5 1/9/5
f 4/11/6 2/50/6 6/7/6
f 10/1/1 12/12/1 11/2/1
f 12/12/2 16/4/2 15/5/2
f 16/4/3 14/7/3 13/6/3
f 13/6/4 14/7/4 10/13/4
f 15/5/5 13/6/5 9/9/5
f 12/11/6 10/50/6 14/7/6
f 18/1/1 20/12/1 19/2/1
f 19/2/2 20/12/2 24/4/2
f 24/4/3 22/7/3 21/6/3
f 22/7/4 18/13/4 17/8/4
f 23/5/5 21/6/5 17/9/5
f 20/11/6 18/50/6 22/7/6
f 28/14/6 25/51/6 40/15/6
f 38/19/6 40/15/6 25/51/6
f 25/51/6 31/52/6 34/17/6
f 34/17/6 28/14/6 39/16/6
f 34/17/6 39/16/6 37/18/6
f 38/19/6 25/51/6 34/17/6
f 28/20/4 34/53/4 36/21/4
f 34/23/1 31/54/1 33/24/1
f 27/26/5 30/55/5 36/27/5
f 25/29/3 28/56/3 30/30/3
f 31/32/2 25/57/2 27/33/2
usemtl Material.002
f 26/35/3 38/36/3 37/37/3
f 29/38/4 40/39/4 38/40/4
f 32/41/1 40/42/1 35/43/1
f 26/44/2 39/45/2 32/46/2
f 26/47/6 35/48/6 29/49/6
f 26/35/3 29/58/3 38/36/3
f 29/38/4 35/59/4 40/39/4
f 32/41/1 39/60/1 40/42/1
f 26/44/2 37/61/2 39/45/2
f 26/47/6 32/62/6 35/48/6
o Cube.007
v -0.247629 0.450000 2.000000
v -0.247629 0.490000 2.000000
v -0.247629 0.450000 1.960000
v -0.247629 0.490000 1.960000
v 0.052371 0.450000 2.000000
v 0.052371 0.490000 2.000000
v 0.052371 0.450000 1.960000
v 0.052371 0.490000 1.960000
v 0.012371 0.490000 2.000000
v 0.012371 0.630000 2.000000
v 0.012371 0.490000 1.960000
v 0.012371 0.630000 1.960000
v 0.052371 0.490000 2.000000
v 0.052371 0.630000 2.000000
v 0.052371 0.490000 1.960000
v 0.052371 0.630000 1.960000
v -0.247629 0.490000 2.000000
v -0.247629 0.630000 2.000000
v -0.247629 0.490000 1.960000
v -0.247629 0.630000 1.960000
v -0.207629 0.490000 2.000000
v -0.207629 0.630000 2.000000
v -0.207629 0.490000 1.960000
v -0.207629 0.630000 1.960000
v -0.247629 0.450000 -1.960000
v -0.247629 0.490000 -1.960000
v -0.247629 0.450000 -2.000000
v -0.247629 0.490000 -2.000000
v 0.052371 0.450000 -1.960000
v 0.052371 0.490000 -1.960000
v 0.052371 0.450000 -2.000000
v 0.052371 0.490000 -2.000000
v 0.012371 0.490000 -1.960000
v 0.012371 0.630000 -1.960000
v 0.012371 0.490000 -2.000000
v 0.012371 0.630000 -2.000000
v 0.052371 0.490000 -1.960000
v 0.052371 0.630000 -1.960000
v 0.052371 0.490000 -2.000000
v 0.052371 0.630000 -2.000000
v -0.247629 0.490000 -1.960000
v -0.247629 0.630000 -1.960000
v -0.247629 0.490000 -2.000000
v -0.247629 0.630000 -2.000000
v -0.207629 0.490000 -1.960000
v -0.207629 0.630000 -1.960000
v -0.207629 0.490000 -2.000000
v -0.207629 0.630000 -2.000000
v 0.902372 1.000000 -2.000000
v -0.327629 0.410000 -1.960000
v -0.327629 0.410000 -1.960000
v -0.327629 0.690000 -1.960000
v -0.327629 0.410000 2.000000
v -0.327629 0.690000 -1.960000
v 0.852372 1.000000 -1.950000
v 0.132371 0.410000 -1.960000
v 0.132371 0.690000 -1.960000
v -0.327629 0.410000 -2.000000
v -0.327629 0.690000 2.000000
v -0.327629 0.690000 -2.000000
v 0.902372 -1.000000 -2.000000
v 0.132371 0.410000 -1.960000
v -0.327629 0.410000 1.960000
v 0.132371 0.690000 -1.960000
v 0.852372 0.500000 -1.950000
v 0.132371 0.410000 -2.000000
v -0.327629 0.690000 1.960000
v 0.132371 0.690000 -2.000000
v 0.852372 1.000000 1.950000
v 0.132371 0.410000 2.000000
v 0.902372 1.000000 2.000000
v 0.132371 0.690000 2.000000
v 0.902372 -1.000000 2.000000
v 0.132371 0.410000 1.960000
v 0.852372 0.500000 1.950000
v 0.132371 0.690000 1.960000
v -1.097629 1.000000 -2.000000
v -1.047629 1.000000 -1.950000
v -1.097629 -1.000000 -2.000000
v -1.047629 0.500000 -1.950000
v -1.097629 1.000000 2.000000
v -1.047629 1.000000 1.950000
v -1.097629 -1.000000 2.000000
v -1.047629 0.500000 1.950000
v -0.327629 0.410000 -2.000000
v -0.327629 0.690000 -2.000000
v 0.132371 0.690000 -2.000000
v 0.132371 0.410000 -2.000000
vn -1.0000 -0.0000 -0.0000
vn -0.0000 -0.0000 -1.0000
vn 1.0000 -0.0000 -0.0000
vn -0.0000 -0.0000 1.0000
vn -0.0000 -1.0000 -0.0000
vn -0.0000 1.0000 -0.0000
vt 0.682296 0.032801
vt 0.656046 0.072057
vt 0.656046 0.032801
vt 0.682296 0.072057
vt 0.656046 0.111313
vt 0.682296 0.111313
vt 0.656046 0.150569
vt 0.682296 0.150569
vt 0.656046 0.189825
vt 0.629797 0.150569
vt 0.629797 0.111313
vt 0.708545 0.111313
vt 0.681237 0.009214
vt 0.653921 0.056760
vt 0.653921 0.009214
vt 0.681237 0.056760
vt 0.653921 0.104307
vt 0.681237 0.104307
vt 0.653921 0.151853
vt 0.681237 0.151853
vt 0.653921 0.199400
vt 0.626606 0.151853
vt 0.626606 0.104307
vt 0.708552 0.104307
vt 0.455638 0.246870
vt 0.449388 0.243745
vt 0.699388 0.243745
vt 0.699388 0.493745
vt 0.455638 0.490620
vt 0.693138 0.490620
vt 0.372221 0.305799
vt 0.318737 0.401384
vt 0.457657 0.077368
vt 0.404173 0.351162
vt 0.372221 0.351162
vt 0.953209 0.938636
vt 0.639675 0.565868
vt 0.953209 0.565868
vt 0.265784 0.042613
vt 0.015784 0.292613
vt 0.015784 0.042613
vt 0.325247 0.936707
vt 0.011118 0.566611
vt 0.325247 0.566612
vt 0.457379 0.076519
vt 0.403956 0.306191
vt 0.372041 0.306191
vt 0.318618 0.402295
vt 0.403956 0.351799
vt 0.457379 0.402295
vt 0.883021 0.390983
vt 0.767914 0.420976
vt 0.883021 0.420976
vt 0.767914 0.301005
vt 0.883021 0.330998
vt 0.883021 0.301005
vt 0.720040 0.211142
vt 0.970040 0.019600
vt 0.720040 0.019600
vt 0.760978 0.364084
vt 0.876085 0.334092
vt 0.760978 0.334092
vt 0.767914 0.360990
vt 0.767914 0.330998
vt 0.720350 0.344769
vt 0.851132 0.456588
vt 0.851132 0.344769
vt 0.855458 0.458544
vt 0.986240 0.346725
vt 0.855458 0.346725
vt 0.983415 0.229851
vt 0.852633 0.341669
vt 0.983415 0.341669
vt 0.721851 0.341669
vt 0.852633 0.229851
vt 0.721851 0.229851
vt 0.922127 0.284782
vt 0.791345 0.396601
vt 0.922127 0.396601
vt 0.625000 0.000000
vt 0.375000 0.000000
vt 0.625000 0.000001
vt 0.854957 0.337421
vt 0.715625 0.442722
vt 0.854957 0.442722
vt 0.625000 0.750000
vt 0.375000 0.750000
vt 0.994340 0.228814
vt 0.855008 0.334115
vt 0.994340 0.334115
vt 0.855008 0.439416
vt 0.125000 0.750000
vt 0.125000 0.749999
vt 0.715675 0.334114
vt 0.855008 0.228814
vt 0.715675 0.228814
vt 0.875000 0.750000
vt 0.937943 0.275424
vt 0.798610 0.380725
vt 0.937943 0.380725
vt 0.625000 0.125000
vt 0.375000 0.125000
vt 0.375000 0.125000
vt 0.625000 0.625000
vt 0.375000 0.625000
vt 0.625000 0.625000
vt 0.375000 0.625000
vt 0.125000 0.625000
vt 0.875000 0.625000
vt 0.875000 0.625000
vt 0.682296 0.189825
vt 0.708545 0.150569
vt 0.681237 0.199400
vt 0.708552 0.151853
vt 0.449388 0.493745
vt 0.693138 0.246870
vt 0.457657 0.401384
vt 0.404173 0.305799
vt 0.318737 0.077368
vt 0.639675 0.938636
vt 0.265784 0.292613
vt 0.011118 0.936707
vt 0.372041 0.351799
vt 0.318618 0.076519
vt 0.767914 0.390983
vt 0.970040 0.211142
vt 0.876085 0.364084
vt 0.883021 0.360990
vt 0.720350 0.456588
vt 0.986240 0.458544
vt 0.791345 0.283661
vt 0.715625 0.337420
vt 0.994340 0.439416
vt 0.798610 0.275424
vt 0.625000 0.125000
vt 0.125000 0.625000
s 0
usemtl Material.002
f 42/63/7 43/64/7 41/65/7
f 44/66/8 47/67/8 43/64/8
f 48/68/9 45/69/9 47/67/9
f 46/70/10 41/71/10 45/69/10
f 47/67/11 41/72/11 43/73/11
f 44/74/12 46/70/12 48/68/12
f 50/63/7 51/64/7 49/65/7
f 52/66/8 55/67/8 51/64/8
f 56/68/9 53/69/9 55/67/9
f 54/70/10 49/71/10 53/69/10
f 55/67/11 49/72/11 51/73/11
f 52/74/12 54/70/12 56/68/12
f 58/63/7 59/64/7 57/65/7
f 60/66/8 63/67/8 59/64/8
f 64/68/9 61/69/9 63/67/9
f 62/70/10 57/71/10 61/69/10
f 63/67/11 57/72/11 59/73/11
f 60/74/12 62/70/12 64/68/12
f 66/75/7 67/76/7 65/77/7
f 68/78/8 71/79/8 67/76/8
f 72/80/9 69/81/9 71/79/9
f 70/82/10 65/83/10 69/81/10
f 71/79/11 65/84/11 67/85/11
f 68/86/12 70/82/12 72/80/12
f 74/75/7 75/76/7 73/77/7
f 76/78/8 79/79/8 75/76/8
f 80/80/9 77/81/9 79/79/9
f 78/82/10 73/83/10 77/81/10
f 79/79/11 73/84/11 75/85/11
f 76/86/12 78/82/12 80/80/12
f 82/75/7 83/76/7 81/77/7
f 84/78/8 87/79/8 83/76/8
f 88/80/9 85/81/9 87/79/9
f 86/82/10 81/83/10 85/81/10
f 87/79/11 81/84/11 83/85/11
f 84/86/12 86/82/12 88/80/12
f 95/87/12 89/88/12 117/89/12
f 121/90/12 109/91/12 122/92/12
f 93/93/10 121/94/10 113/95/10
f 112/96/10 121/94/10 99/97/10
f 121/98/7 119/99/7 123/100/7
f 101/101/11 123/102/11 119/103/11
f 89/104/9 113/105/9 101/106/9
f 119/107/8 125/108/8 128/109/8
f 89/110/8 126/111/8 117/112/8
f 109/113/8 124/114/8 122/115/8
f 124/116/9 118/117/9 122/118/9
f 124/119/12 105/120/12 120/121/12
f 115/122/7 95/123/7 105/124/7
f 105/125/10 118/117/10 120/126/10
f 93/127/9 107/128/9 99/129/9
f 114/130/10 107/131/10 103/132/10
f 116/133/7 110/134/7 112/135/7
f 93/136/12 114/137/12 103/138/12
f 107/139/11 112/140/11 99/141/11
f 94/142/9 90/143/9 92/144/9
f 92/145/9 98/146/9 100/147/9
f 104/148/7 96/149/7 102/149/7
f 108/150/7 96/151/7 97/152/7
f 91/153/8 104/152/8 102/151/8
f 91/154/12 96/149/12 90/155/12
f 90/156/12 106/157/12 98/158/12
f 94/159/12 97/148/12 104/148/12
f 100/160/11 97/161/11 92/162/11
f 126/163/9 98/164/9 125/165/9
f 127/166/7 106/167/7 108/168/7
f 128/169/12 98/170/12 106/167/12
f 127/166/11 100/171/11 126/172/11
f 42/63/7 44/66/7 43/64/7
f 44/66/8 48/68/8 47/67/8
f 48/68/9 46/70/9 45/69/9
f 46/70/10 42/173/10 41/71/10
f 47/67/11 45/69/11 41/72/11
f 44/74/12 42/174/12 46/70/12
f 50/63/7 52/66/7 51/64/7
f 52/66/8 56/68/8 55/67/8
f 56/68/9 54/70/9 53/69/9
f 54/70/10 50/173/10 49/71/10
f 55/67/11 53/69/11 49/72/11
f 52/74/12 50/174/12 54/70/12
f 58/63/7 60/66/7 59/64/7
f 60/66/8 64/68/8 63/67/8
f 64/68/9 62/70/9 61/69/9
f 62/70/10 58/173/10 57/71/10
f 63/67/11 61/69/11 57/72/11
f 60/74/12 58/174/12 62/70/12
f 66/75/7 68/78/7 67/76/7
f 68/78/8 72/80/8 71/79/8
f 72/80/9 70/82/9 69/81/9
f 70/82/10 66/175/10 65/83/10
f 71/79/11 69/81/11 65/84/11
f 68/86/12 66/176/12 70/82/12
f 74/75/7 76/78/7 75/76/7
f 76/78/8 80/80/8 79/79/8
f 80/80/9 78/82/9 77/81/9
f 78/82/10 74/175/10 73/83/10
f 79/79/11 77/81/11 73/84/11
f 76/86/12 74/176/12 78/82/12
f 82/75/7 84/78/7 83/76/7
f 84/78/8 88/80/8 87/79/8
f 88/80/9 86/82/9 85/81/9
f 86/82/10 82/175/10 81/83/10
f 87/79/11 85/81/11 81/84/11
f 84/86/12 82/176/12 86/82/12
f 95/87/12 109/91/12 111/177/12
f 117/89/12 121/90/12 122/92/12
f 117/89/12 122/92/12 118/178/12
f 95/87/12 111/177/12 89/88/12
f 117/89/12 118/178/12 95/87/12
f 121/90/12 111/177/12 109/91/12
f 113/95/10 111/179/10 112/96/10
f 113/95/10 112/96/10 110/180/10
f 121/94/10 123/181/10 113/95/10
f 93/93/10 99/97/10 121/94/10
f 113/95/10 110/180/10 93/93/10
f 112/96/10 111/179/10 121/94/10
f 121/98/7 117/182/7 119/99/7
f 101/101/11 113/183/11 123/102/11
f 89/104/9 111/184/9 113/105/9
f 128/109/8 127/185/8 89/110/8
f 89/110/8 101/186/8 119/107/8
f 119/107/8 117/112/8 126/111/8
f 119/107/8 126/111/8 125/108/8
f 128/109/8 89/110/8 119/107/8
f 89/110/8 127/185/8 126/111/8
f 109/113/8 115/187/8 124/114/8
f 124/116/9 120/126/9 118/117/9
f 124/119/12 115/188/12 105/120/12
f 115/122/7 109/189/7 95/123/7
f 105/125/10 95/190/10 118/117/10
f 93/127/9 103/191/9 107/128/9
f 114/130/10 116/192/10 107/131/10
f 116/133/7 114/137/7 110/134/7
f 93/136/12 110/134/12 114/137/12
f 107/139/11 116/193/11 112/140/11
f 94/142/9 91/143/9 90/143/9
f 92/145/9 90/194/9 98/146/9
f 104/148/7 97/148/7 96/149/7
f 108/150/7 106/157/7 96/151/7
f 91/153/8 94/195/8 104/152/8
f 91/154/12 102/149/12 96/149/12
f 90/156/12 96/151/12 106/157/12
f 94/159/11 92/159/11 97/148/11
f 100/160/11 108/196/11 97/161/11
f 126/163/9 100/197/9 98/164/9
f 127/166/7 128/169/7 106/167/7
f 128/169/12 125/198/12 98/170/12
f 127/166/12 108/168/12 100/171/12
